<?xml version="1.0" standalone="no"?>
<!DOCTYPE svg PUBLIC "-//W3C//DTD SVG 20010904//EN"
 "http://www.w3.org/TR/2001/REC-SVG-20010904/DTD/svg10.dtd">
<svg version="1.0" xmlns="http://www.w3.org/2000/svg"
 width="16.000000pt" height="16.000000pt" viewBox="0 0 16.000000 16.000000"
 preserveAspectRatio="xMidYMid meet">
<metadata>
Created by potrace 1.11, written by Peter Selinger 2001-2013
</metadata>
<g transform="translate(0.000000,16.000000) scale(0.015094,-0.015094)"
fill="#000000" stroke="none">
<path d="M469 1036 c-134 -39 -247 -136 -311 -267 -60 -123 -73 -238 -42 -387
51 -247 246 -388 512 -369 89 7 164 27 240 66 38 19 42 25 43 59 1 51 1 443 0
465 -1 16 -17 17 -191 17 l-190 0 0 -80 0 -80 80 0 80 0 0 -105 c0 -104 0
-105 -26 -111 -42 -11 -145 6 -178 28 -46 32 -63 57 -87 127 -32 94 -24 213
19 297 18 35 46 73 69 90 33 25 48 29 114 32 52 3 86 -1 112 -12 36 -14 37
-17 37 -65 l0 -51 54 0 c62 0 56 -13 77 167 9 79 9 106 0 117 -6 8 -44 26 -84
41 -87 33 -252 43 -328 21z"/>
</g>
</svg>
